<svg width="18" height="16" viewBox="0 0 18 16" fill="none" xmlns="http://www.w3.org/2000/svg">
<mask id="path-1-inside-1_2073_29577" fill="white">
<path d="M16.8632 0.716236C16.7341 0.604649 16.5769 0.530548 16.4086 0.501969C16.2403 0.473389 16.0675 0.491422 15.9087 0.554112L1.49018 6.21856C1.3017 6.2926 1.14226 6.42569 1.03572 6.5979C0.929186 6.77012 0.881281 6.97221 0.899176 7.17392C0.917072 7.37563 0.999805 7.56613 1.135 7.7169C1.27019 7.86767 1.45057 7.97061 1.64914 8.01032L5.56276 8.79309V13.6238C5.5608 13.8096 5.615 13.9918 5.71826 14.1463C5.82152 14.3008 5.96903 14.4206 6.14148 14.4899C6.25701 14.5383 6.38096 14.5633 6.50621 14.5637C6.6286 14.5633 6.7497 14.5386 6.86247 14.491C6.97525 14.4435 7.07746 14.374 7.16317 14.2866L9.39725 12.0526L12.6936 14.9534C12.8635 15.1042 13.0827 15.1877 13.3099 15.1879C13.4086 15.1878 13.5068 15.1722 13.6007 15.1417C13.7556 15.0926 13.895 15.0037 14.0048 14.8839C14.1147 14.7641 14.1912 14.6176 14.2267 14.459L17.1653 1.63611C17.2037 1.46981 17.1958 1.29619 17.1426 1.13404C17.0893 0.971897 16.9927 0.827411 16.8632 0.716236ZM1.52173 7.11867C1.51396 7.05116 1.52918 6.98301 1.56493 6.92522C1.60069 6.86743 1.65488 6.8234 1.71876 6.80022L14.9356 1.60786L5.80278 8.20374L1.77171 7.39753C1.70475 7.38594 1.64365 7.35212 1.59829 7.30152C1.55293 7.25092 1.52596 7.1865 1.52173 7.11867ZM6.7212 13.8447C6.6775 13.8884 6.62182 13.9182 6.56121 13.9303C6.50059 13.9423 6.43776 13.9361 6.38066 13.9125C6.32356 13.8888 6.27476 13.8488 6.24042 13.7974C6.20608 13.746 6.18776 13.6856 6.18776 13.6238V9.22818L8.92713 11.6389L6.7212 13.8447ZM16.5561 1.49649L13.6175 14.3194C13.6054 14.3721 13.5798 14.4209 13.5432 14.4607C13.5067 14.5006 13.4603 14.5304 13.4088 14.547C13.3573 14.5636 13.3023 14.5665 13.2493 14.5555C13.1963 14.5445 13.1471 14.5199 13.1065 14.4842L6.37567 8.56101L16.5056 1.24499C16.5322 1.28049 16.5506 1.3215 16.5594 1.36502C16.5681 1.40854 16.567 1.45346 16.5561 1.49649Z"/>
</mask>
<path d="M16.8632 0.716236C16.7341 0.604649 16.5769 0.530548 16.4086 0.501969C16.2403 0.473389 16.0675 0.491422 15.9087 0.554112L1.49018 6.21856C1.3017 6.2926 1.14226 6.42569 1.03572 6.5979C0.929186 6.77012 0.881281 6.97221 0.899176 7.17392C0.917072 7.37563 0.999805 7.56613 1.135 7.7169C1.27019 7.86767 1.45057 7.97061 1.64914 8.01032L5.56276 8.79309V13.6238C5.5608 13.8096 5.615 13.9918 5.71826 14.1463C5.82152 14.3008 5.96903 14.4206 6.14148 14.4899C6.25701 14.5383 6.38096 14.5633 6.50621 14.5637C6.6286 14.5633 6.7497 14.5386 6.86247 14.491C6.97525 14.4435 7.07746 14.374 7.16317 14.2866L9.39725 12.0526L12.6936 14.9534C12.8635 15.1042 13.0827 15.1877 13.3099 15.1879C13.4086 15.1878 13.5068 15.1722 13.6007 15.1417C13.7556 15.0926 13.895 15.0037 14.0048 14.8839C14.1147 14.7641 14.1912 14.6176 14.2267 14.459L17.1653 1.63611C17.2037 1.46981 17.1958 1.29619 17.1426 1.13404C17.0893 0.971897 16.9927 0.827411 16.8632 0.716236ZM1.52173 7.11867C1.51396 7.05116 1.52918 6.98301 1.56493 6.92522C1.60069 6.86743 1.65488 6.8234 1.71876 6.80022L14.9356 1.60786L5.80278 8.20374L1.77171 7.39753C1.70475 7.38594 1.64365 7.35212 1.59829 7.30152C1.55293 7.25092 1.52596 7.1865 1.52173 7.11867ZM6.7212 13.8447C6.6775 13.8884 6.62182 13.9182 6.56121 13.9303C6.50059 13.9423 6.43776 13.9361 6.38066 13.9125C6.32356 13.8888 6.27476 13.8488 6.24042 13.7974C6.20608 13.746 6.18776 13.6856 6.18776 13.6238V9.22818L8.92713 11.6389L6.7212 13.8447ZM16.5561 1.49649L13.6175 14.3194C13.6054 14.3721 13.5798 14.4209 13.5432 14.4607C13.5067 14.5006 13.4603 14.5304 13.4088 14.547C13.3573 14.5636 13.3023 14.5665 13.2493 14.5555C13.1963 14.5445 13.1471 14.5199 13.1065 14.4842L6.37567 8.56101L16.5056 1.24499C16.5322 1.28049 16.5506 1.3215 16.5594 1.36502C16.5681 1.40854 16.567 1.45346 16.5561 1.49649Z" fill="#AAAAAA"/>
<path d="M16.8632 0.716236L15.5556 2.22957L15.5604 2.23367L16.8632 0.716236ZM15.9087 0.554112L16.64 2.41562L16.6433 2.41431L15.9087 0.554112ZM1.49018 6.21856L2.22145 8.08007L2.22149 8.08006L1.49018 6.21856ZM1.64914 8.01032L2.0414 6.04916L2.04128 6.04914L1.64914 8.01032ZM5.56276 8.79309H7.56276V7.15351L5.95501 6.83194L5.56276 8.79309ZM5.56276 13.6238L7.56264 13.6448L7.56276 13.6343V13.6238H5.56276ZM6.14148 14.4899L6.91391 12.6451L6.90063 12.6395L6.88728 12.6341L6.14148 14.4899ZM6.50621 14.5637L6.5009 16.5637L6.51247 16.5637L6.50621 14.5637ZM7.16317 14.2866L5.74896 12.8724L5.7422 12.8792L5.7355 12.886L7.16317 14.2866ZM9.39725 12.0526L10.7185 10.5511L9.30986 9.31152L7.98304 10.6383L9.39725 12.0526ZM12.6936 14.9534L14.0217 13.458L14.0149 13.452L12.6936 14.9534ZM13.3099 15.1879L13.3077 17.1879L13.3122 17.1879L13.3099 15.1879ZM13.6007 15.1417L12.9961 13.2353L12.9837 13.2393L13.6007 15.1417ZM14.2267 14.459L12.2772 14.0122L12.2751 14.0216L14.2267 14.459ZM17.1653 1.63611L15.2165 1.18652L15.2158 1.18936L17.1653 1.63611ZM1.52173 7.11867L3.51787 6.99438L3.51461 6.94202L3.5086 6.88989L1.52173 7.11867ZM1.71876 6.80022L2.40083 8.68032L2.42558 8.67135L2.45007 8.66172L1.71876 6.80022ZM14.9356 1.60786L16.1066 3.22923L14.2043 -0.253637L14.9356 1.60786ZM5.80278 8.20374L5.41054 10.1649L6.26628 10.3361L6.97375 9.8251L5.80278 8.20374ZM1.77171 7.39753L2.16394 5.43637L2.13834 5.43124L2.11261 5.42679L1.77171 7.39753ZM6.7212 13.8447L5.307 12.4305L5.30694 12.4306L6.7212 13.8447ZM6.18776 13.6238L4.18776 13.6238V13.6238L6.18776 13.6238ZM6.18776 9.22818L7.50902 7.72676L4.18776 4.80401V9.22818H6.18776ZM8.92713 11.6389L10.3413 13.0531L11.8487 11.5457L10.2484 10.1374L8.92713 11.6389ZM16.5561 1.49649L14.6171 1.00625L14.6116 1.02794L14.6066 1.04974L16.5561 1.49649ZM13.6175 14.3194L15.5669 14.7663L15.567 14.7661L13.6175 14.3194ZM13.1065 14.4842L11.7852 15.9856L11.7854 15.9857L13.1065 14.4842ZM6.37567 8.56101L5.20469 6.93965L3.17312 8.40689L5.05441 10.0624L6.37567 8.56101ZM16.5056 1.24499L18.105 0.0441749L16.9262 -1.52584L15.3346 -0.376368L16.5056 1.24499ZM18.1708 -0.797088C17.7654 -1.14742 17.2718 -1.38006 16.7435 -1.46979L16.0737 2.47373C15.8819 2.44116 15.7028 2.35672 15.5556 2.22956L18.1708 -0.797088ZM16.7435 -1.46979C16.2152 -1.55952 15.6725 -1.5029 15.1741 -1.30609L16.6433 2.41431C16.4624 2.48575 16.2654 2.5063 16.0737 2.47373L16.7435 -1.46979ZM15.1774 -1.30739L0.758878 4.35705L2.22149 8.08006L16.64 2.41561L15.1774 -1.30739ZM0.758917 4.35704C0.168304 4.58905 -0.331299 5.00608 -0.665132 5.54572L2.73658 7.65009C2.61582 7.84529 2.4351 7.99615 2.22145 8.08007L0.758917 4.35704ZM-0.665132 5.54572C-0.998964 6.08536 -1.14907 6.71859 -1.093 7.35066L2.89135 6.99718C2.91164 7.22582 2.85734 7.45488 2.73658 7.65009L-0.665132 5.54572ZM-1.093 7.35066C-1.03692 7.98273 -0.777681 8.57964 -0.35406 9.05208L2.62405 6.38172C2.77729 6.55262 2.87107 6.76854 2.89135 6.99718L-1.093 7.35066ZM-0.35406 9.05208C0.0695587 9.52452 0.634775 9.84709 1.25701 9.9715L2.04128 6.04914C2.26636 6.09414 2.47082 6.21082 2.62405 6.38172L-0.35406 9.05208ZM1.25689 9.97148L5.1705 10.7543L5.95501 6.83194L2.0414 6.04916L1.25689 9.97148ZM3.56276 8.79309V13.6238H7.56276V8.79309H3.56276ZM3.56287 13.6027C3.55667 14.1913 3.72832 14.7681 4.05534 15.2575L7.38118 13.0351C7.50168 13.2155 7.56493 13.428 7.56264 13.6448L3.56287 13.6027ZM4.05534 15.2575C4.38237 15.7469 4.84953 16.1261 5.39568 16.3456L6.88728 12.6341C7.08853 12.715 7.26067 12.8548 7.38118 13.0351L4.05534 15.2575ZM5.36906 16.3347C5.72757 16.4848 6.11221 16.5626 6.5009 16.5637L6.51152 12.5637C6.64971 12.564 6.78645 12.5917 6.91391 12.6451L5.36906 16.3347ZM6.51247 16.5637C6.89968 16.5624 7.28278 16.4843 7.63955 16.3339L6.08539 12.6482C6.21661 12.5928 6.35752 12.5641 6.49994 12.5637L6.51247 16.5637ZM7.63955 16.3339C7.99633 16.1835 8.31968 15.9637 8.59085 15.6873L5.7355 12.886C5.83524 12.7843 5.95417 12.7035 6.08539 12.6482L7.63955 16.3339ZM8.57739 15.7009L10.8115 13.4668L7.98304 10.6383L5.74896 12.8724L8.57739 15.7009ZM8.07599 13.554L11.3723 16.4548L14.0149 13.452L10.7185 10.5511L8.07599 13.554ZM11.3655 16.4488C11.9009 16.9242 12.5918 17.1871 13.3077 17.1879L13.312 13.1879C13.5736 13.1882 13.8261 13.2843 14.0217 13.458L11.3655 16.4488ZM13.3122 17.1879C13.6197 17.1875 13.9252 17.1391 14.2177 17.0442L12.9837 13.2393C13.0883 13.2054 13.1976 13.188 13.3075 13.1879L13.3122 17.1879ZM14.2053 17.0482C14.6936 16.8933 15.1327 16.6131 15.479 16.2356L12.5307 13.5323C12.6572 13.3943 12.8177 13.2919 12.9961 13.2353L14.2053 17.0482ZM15.479 16.2356C15.8252 15.858 16.0663 15.3962 16.1783 14.8964L12.2751 14.0216C12.3161 13.839 12.4042 13.6702 12.5307 13.5323L15.479 16.2356ZM16.1762 14.9057L19.1148 2.08286L15.2158 1.18936L12.2773 14.0122L16.1762 14.9057ZM19.1141 2.08571C19.2345 1.56381 19.2098 1.01891 19.0427 0.510032L15.2424 1.75805C15.1818 1.57347 15.1728 1.37582 15.2165 1.18652L19.1141 2.08571ZM19.0427 0.510032C18.8756 0.00115791 18.5724 -0.45229 18.1661 -0.801197L15.5604 2.23367C15.413 2.10711 15.303 1.94264 15.2424 1.75805L19.0427 0.510032ZM3.5086 6.88989C3.55231 7.26944 3.46673 7.65263 3.26571 7.97753L-0.135847 5.87292C-0.408373 6.31339 -0.524389 6.83289 -0.46514 7.34745L3.5086 6.88989ZM3.26571 7.97753C3.06469 8.30242 2.75998 8.55003 2.40083 8.68032L1.03669 4.92012C0.549791 5.09676 0.136681 5.43245 -0.135847 5.87292L3.26571 7.97753ZM2.45007 8.66172L15.6669 3.46937L14.2043 -0.253637L0.987455 4.93872L2.45007 8.66172ZM13.7646 -0.0134969L4.6318 6.58238L6.97375 9.8251L16.1066 3.22923L13.7646 -0.0134969ZM6.19501 6.24258L2.16394 5.43637L1.37948 9.35869L5.41054 10.1649L6.19501 6.24258ZM2.11261 5.42679C2.48904 5.49191 2.83251 5.68206 3.08751 5.96652L0.109069 8.63652C0.454785 9.02217 0.920452 9.27997 1.43081 9.36826L2.11261 5.42679ZM3.08751 5.96652C3.3425 6.25096 3.49413 6.6131 3.51787 6.99438L-0.474402 7.24296C-0.442215 7.7599 -0.236644 8.25087 0.109069 8.63652L3.08751 5.96652ZM5.30694 12.4306C5.54294 12.1946 5.84362 12.0338 6.17097 11.9687L6.95145 15.8918C7.40003 15.8026 7.81207 15.5823 8.13547 15.2589L5.30694 12.4306ZM6.17097 11.9687C6.4983 11.9036 6.83761 11.937 7.14599 12.0647L5.61534 15.7603C6.03792 15.9353 6.50289 15.9811 6.95145 15.8918L6.17097 11.9687ZM7.14599 12.0647C7.45437 12.1924 7.71792 12.4087 7.90334 12.6862L4.5775 14.9086C4.83159 15.2888 5.19276 15.5852 5.61534 15.7603L7.14599 12.0647ZM7.90334 12.6862C8.08877 12.9637 8.18775 13.29 8.18776 13.6238L4.18776 13.6238C4.18776 14.0812 4.3234 14.5283 4.5775 14.9086L7.90334 12.6862ZM8.18776 13.6238V9.22818H4.18776V13.6238H8.18776ZM4.86649 10.7296L7.60587 13.1403L10.2484 10.1374L7.50902 7.72676L4.86649 10.7296ZM7.51293 10.2246L5.307 12.4305L8.1354 15.259L10.3413 13.0531L7.51293 10.2246ZM14.6066 1.04974L11.6681 13.8726L15.567 14.7661L18.5056 1.94325L14.6066 1.04974ZM11.6681 13.8724C11.7334 13.5875 11.8716 13.3244 12.0692 13.109L15.0173 15.8125C15.288 15.5173 15.4774 15.1568 15.5669 14.7663L11.6681 13.8724ZM12.0692 13.109C12.2667 12.8936 12.5168 12.7332 12.795 12.6435L14.0226 16.4505C14.4039 16.3275 14.7466 16.1077 15.0173 15.8125L12.0692 13.109ZM12.795 12.6435C13.0732 12.5538 13.3699 12.5379 13.6561 12.5973L12.8426 16.5137C13.2348 16.5952 13.6414 16.5734 14.0226 16.4505L12.795 12.6435ZM13.6561 12.5973C13.9423 12.6568 14.2081 12.7895 14.4276 12.9826L11.7854 15.9857C12.0861 16.2503 12.4504 16.4323 12.8426 16.5137L13.6561 12.5973ZM14.4277 12.9827L7.69693 7.05959L5.05441 10.0624L11.7852 15.9856L14.4277 12.9827ZM7.54664 10.1824L17.6766 2.86636L15.3346 -0.376368L5.20469 6.93965L7.54664 10.1824ZM14.9062 2.44581C14.7537 2.24264 14.6485 2.0079 14.5985 1.7588L18.5202 0.971242C18.4527 0.635103 18.3108 0.31834 18.105 0.0441749L14.9062 2.44581ZM14.5985 1.7588C14.5485 1.50971 14.5548 1.25257 14.6171 1.00625L18.4951 1.98674C18.5791 1.65435 18.5877 1.30737 18.5202 0.971242L14.5985 1.7588Z" fill="#AAAAAA" mask="url(#path-1-inside-1_2073_29577)"/>
</svg>
