<svg width="20" height="20" viewBox="0 0 20 20" fill="none" xmlns="http://www.w3.org/2000/svg">
<mask id="path-1-inside-1_2073_29272" fill="white">
<path d="M17.8622 2.71624C17.7331 2.60465 17.5759 2.53055 17.4076 2.50197C17.2394 2.47339 17.0665 2.49142 16.9077 2.55411L2.48921 8.21856C2.30072 8.2926 2.14128 8.42569 2.03475 8.5979C1.92821 8.77012 1.8803 8.97221 1.8982 9.17392C1.91609 9.37563 1.99883 9.56613 2.13402 9.7169C2.26921 9.86767 2.44959 9.97061 2.64817 10.0103L6.56178 10.7931V15.6238C6.55982 15.8096 6.61402 15.9918 6.71728 16.1463C6.82054 16.3008 6.96805 16.4206 7.14051 16.4899C7.25604 16.5383 7.37998 16.5633 7.50523 16.5637C7.62762 16.5633 7.74872 16.5386 7.8615 16.491C7.97427 16.4435 8.07648 16.374 8.1622 16.2866L10.3963 14.0526L13.6926 16.9534C13.8625 17.1042 14.0817 17.1877 14.3089 17.1879C14.4077 17.1878 14.5058 17.1722 14.5997 17.1417C14.7547 17.0926 14.894 17.0037 15.0039 16.8839C15.1137 16.7641 15.1902 16.6176 15.2258 16.459L18.1643 3.63611C18.2027 3.46981 18.1948 3.29619 18.1416 3.13404C18.0883 2.9719 17.9917 2.82741 17.8622 2.71624ZM2.52076 9.11867C2.51298 9.05116 2.5282 8.98301 2.56396 8.92522C2.59971 8.86743 2.65391 8.8234 2.71779 8.80022L15.9346 3.60786L6.8018 10.2037L2.77073 9.39753C2.70377 9.38594 2.64267 9.35212 2.59731 9.30152C2.55195 9.25092 2.52498 9.1865 2.52076 9.11867ZM7.72023 15.8447C7.67653 15.8884 7.62085 15.9182 7.56023 15.9303C7.49962 15.9423 7.43678 15.9361 7.37968 15.9125C7.32259 15.8888 7.27378 15.8488 7.23944 15.7974C7.20511 15.746 7.18678 15.6856 7.18678 15.6238V11.2282L9.92615 13.6389L7.72023 15.8447ZM17.5551 3.49649L14.6166 16.3194C14.6045 16.3721 14.5789 16.4209 14.5423 16.4607C14.5057 16.5006 14.4594 16.5304 14.4078 16.547C14.3563 16.5636 14.3014 16.5665 14.2484 16.5555C14.1954 16.5445 14.1461 16.5199 14.1055 16.4842L7.37469 10.561L17.5046 3.24499C17.5313 3.28049 17.5496 3.3215 17.5584 3.36502C17.5671 3.40854 17.566 3.45346 17.5551 3.49649Z"/>
</mask>
<path d="M17.8622 2.71624C17.7331 2.60465 17.5759 2.53055 17.4076 2.50197C17.2394 2.47339 17.0665 2.49142 16.9077 2.55411L2.48921 8.21856C2.30072 8.2926 2.14128 8.42569 2.03475 8.5979C1.92821 8.77012 1.8803 8.97221 1.8982 9.17392C1.91609 9.37563 1.99883 9.56613 2.13402 9.7169C2.26921 9.86767 2.44959 9.97061 2.64817 10.0103L6.56178 10.7931V15.6238C6.55982 15.8096 6.61402 15.9918 6.71728 16.1463C6.82054 16.3008 6.96805 16.4206 7.14051 16.4899C7.25604 16.5383 7.37998 16.5633 7.50523 16.5637C7.62762 16.5633 7.74872 16.5386 7.8615 16.491C7.97427 16.4435 8.07648 16.374 8.1622 16.2866L10.3963 14.0526L13.6926 16.9534C13.8625 17.1042 14.0817 17.1877 14.3089 17.1879C14.4077 17.1878 14.5058 17.1722 14.5997 17.1417C14.7547 17.0926 14.894 17.0037 15.0039 16.8839C15.1137 16.7641 15.1902 16.6176 15.2258 16.459L18.1643 3.63611C18.2027 3.46981 18.1948 3.29619 18.1416 3.13404C18.0883 2.9719 17.9917 2.82741 17.8622 2.71624ZM2.52076 9.11867C2.51298 9.05116 2.5282 8.98301 2.56396 8.92522C2.59971 8.86743 2.65391 8.8234 2.71779 8.80022L15.9346 3.60786L6.8018 10.2037L2.77073 9.39753C2.70377 9.38594 2.64267 9.35212 2.59731 9.30152C2.55195 9.25092 2.52498 9.1865 2.52076 9.11867ZM7.72023 15.8447C7.67653 15.8884 7.62085 15.9182 7.56023 15.9303C7.49962 15.9423 7.43678 15.9361 7.37968 15.9125C7.32259 15.8888 7.27378 15.8488 7.23944 15.7974C7.20511 15.746 7.18678 15.6856 7.18678 15.6238V11.2282L9.92615 13.6389L7.72023 15.8447ZM17.5551 3.49649L14.6166 16.3194C14.6045 16.3721 14.5789 16.4209 14.5423 16.4607C14.5057 16.5006 14.4594 16.5304 14.4078 16.547C14.3563 16.5636 14.3014 16.5665 14.2484 16.5555C14.1954 16.5445 14.1461 16.5199 14.1055 16.4842L7.37469 10.561L17.5046 3.24499C17.5313 3.28049 17.5496 3.3215 17.5584 3.36502C17.5671 3.40854 17.566 3.45346 17.5551 3.49649Z" fill="#AAAAAA"/>
<path d="M17.8622 2.71624L16.5546 4.22957L16.5594 4.23367L17.8622 2.71624ZM16.9077 2.55411L17.639 4.41562L17.6424 4.41431L16.9077 2.55411ZM2.48921 8.21856L3.22048 10.0801L3.22052 10.0801L2.48921 8.21856ZM2.64817 10.0103L3.04042 8.04916L3.0403 8.04914L2.64817 10.0103ZM6.56178 10.7931H8.56178V9.15351L6.95404 8.83194L6.56178 10.7931ZM6.56178 15.6238L8.56167 15.6448L8.56178 15.6343V15.6238H6.56178ZM7.14051 16.4899L7.91293 14.6451L7.89966 14.6395L7.88631 14.6341L7.14051 16.4899ZM7.50523 16.5637L7.49992 18.5637L7.5115 18.5637L7.50523 16.5637ZM8.1622 16.2866L6.74798 14.8724L6.74122 14.8792L6.73452 14.886L8.1622 16.2866ZM10.3963 14.0526L11.7175 12.5511L10.3089 11.3115L8.98206 12.6383L10.3963 14.0526ZM13.6926 16.9534L15.0207 15.458L15.0139 15.452L13.6926 16.9534ZM14.3089 17.1879L14.3067 19.1879L14.3112 19.1879L14.3089 17.1879ZM14.5997 17.1417L13.9951 15.2353L13.9827 15.2393L14.5997 17.1417ZM15.2258 16.459L13.2763 16.0122L13.2742 16.0216L15.2258 16.459ZM18.1643 3.63611L16.2155 3.18652L16.2149 3.18936L18.1643 3.63611ZM2.52076 9.11867L4.51689 8.99438L4.51363 8.94202L4.50763 8.88989L2.52076 9.11867ZM2.71779 8.80022L3.39986 10.6803L3.4246 10.6713L3.4491 10.6617L2.71779 8.80022ZM15.9346 3.60786L17.1056 5.22923L15.2033 1.74636L15.9346 3.60786ZM6.8018 10.2037L6.40957 12.1649L7.26531 12.3361L7.97278 11.8251L6.8018 10.2037ZM2.77073 9.39753L3.16297 7.43637L3.13736 7.43124L3.11164 7.42679L2.77073 9.39753ZM7.72023 15.8447L6.30603 14.4305L6.30596 14.4306L7.72023 15.8447ZM7.18678 15.6238L5.18678 15.6238V15.6238L7.18678 15.6238ZM7.18678 11.2282L8.50804 9.72676L5.18678 6.80401V11.2282H7.18678ZM9.92615 13.6389L11.3404 15.0531L12.8477 13.5457L11.2474 12.1374L9.92615 13.6389ZM17.5551 3.49649L15.6161 3.00625L15.6107 3.02794L15.6057 3.04974L17.5551 3.49649ZM14.6166 16.3194L16.566 16.7663L16.566 16.7661L14.6166 16.3194ZM14.1055 16.4842L12.7842 17.9856L12.7844 17.9857L14.1055 16.4842ZM7.37469 10.561L6.20371 8.93965L4.17214 10.4069L6.05343 12.0624L7.37469 10.561ZM17.5046 3.24499L19.104 2.04417L17.9252 0.474155L16.3336 1.62363L17.5046 3.24499ZM19.1699 1.20291C18.7644 0.852579 18.2708 0.619936 17.7425 0.530208L17.0727 4.47373C16.881 4.44116 16.7018 4.35672 16.5546 4.22956L19.1699 1.20291ZM17.7425 0.530208C17.2142 0.440481 16.6715 0.497096 16.1731 0.693913L17.6424 4.41431C17.4615 4.48575 17.2645 4.5063 17.0727 4.47373L17.7425 0.530208ZM16.1764 0.69261L1.7579 6.35705L3.22052 10.0801L17.639 4.41561L16.1764 0.69261ZM1.75794 6.35704C1.16733 6.58905 0.667724 7.00608 0.333892 7.54572L3.7356 9.65009C3.61484 9.84529 3.43412 9.99615 3.22048 10.0801L1.75794 6.35704ZM0.333892 7.54572C5.94854e-05 8.08536 -0.150051 8.71859 -0.0939759 9.35066L3.89038 8.99718C3.91066 9.22582 3.85636 9.45488 3.7356 9.65009L0.333892 7.54572ZM-0.0939759 9.35066C-0.0379013 9.98273 0.221342 10.5796 0.644963 11.0521L3.62308 8.38172C3.77631 8.55262 3.87009 8.76854 3.89038 8.99718L-0.0939759 9.35066ZM0.644963 11.0521C1.06858 11.5245 1.6338 11.8471 2.25604 11.9715L3.0403 8.04914C3.26538 8.09414 3.46984 8.21082 3.62308 8.38172L0.644963 11.0521ZM2.25591 11.9715L6.16952 12.7543L6.95404 8.83194L3.04042 8.04916L2.25591 11.9715ZM4.56178 10.7931V15.6238H8.56178V10.7931H4.56178ZM4.56189 15.6027C4.5557 16.1913 4.72734 16.7681 5.05437 17.2575L8.3802 15.0351C8.5007 15.2155 8.56395 15.428 8.56167 15.6448L4.56189 15.6027ZM5.05437 17.2575C5.38139 17.7469 5.84855 18.1261 6.3947 18.3456L7.88631 14.6341C8.08755 14.715 8.2597 14.8548 8.3802 15.0351L5.05437 17.2575ZM6.36808 18.3347C6.72659 18.4848 7.11124 18.5626 7.49992 18.5637L7.51054 14.5637C7.64873 14.564 7.78548 14.5917 7.91293 14.6451L6.36808 18.3347ZM7.5115 18.5637C7.8987 18.5624 8.2818 18.4843 8.63858 18.3339L7.08442 14.6482C7.21564 14.5928 7.35655 14.5641 7.49896 14.5637L7.5115 18.5637ZM8.63858 18.3339C8.99535 18.1835 9.3187 17.9637 9.58987 17.6873L6.73452 14.886C6.83426 14.7843 6.9532 14.7035 7.08442 14.6482L8.63858 18.3339ZM9.57641 17.7009L11.8105 15.4668L8.98206 12.6383L6.74798 14.8724L9.57641 17.7009ZM9.07501 15.554L12.3714 18.4548L15.0139 15.452L11.7175 12.5511L9.07501 15.554ZM12.3646 18.4488C12.8999 18.9242 13.5908 19.1871 14.3067 19.1879L14.311 15.1879C14.5726 15.1882 14.8251 15.2843 15.0207 15.458L12.3646 18.4488ZM14.3112 19.1879C14.6187 19.1875 14.9243 19.1391 15.2168 19.0442L13.9827 15.2393C14.0873 15.2054 14.1966 15.188 14.3066 15.1879L14.3112 19.1879ZM15.2043 19.0482C15.6926 18.8933 16.1318 18.6131 16.478 18.2356L13.5297 15.5323C13.6562 15.3943 13.8167 15.2919 13.9952 15.2353L15.2043 19.0482ZM16.478 18.2356C16.8242 17.858 17.0653 17.3962 17.1774 16.8964L13.2742 16.0216C13.3151 15.839 13.4032 15.6702 13.5297 15.5323L16.478 18.2356ZM17.1752 16.9057L20.1138 4.08286L16.2149 3.18936L13.2763 16.0122L17.1752 16.9057ZM20.1131 4.08571C20.2335 3.56381 20.2089 3.01891 20.0417 2.51003L16.2414 3.75805C16.1808 3.57347 16.1718 3.37582 16.2155 3.18652L20.1131 4.08571ZM20.0417 2.51003C19.8746 2.00116 19.5715 1.54771 19.1651 1.1988L16.5594 4.23367C16.412 4.10711 16.302 3.94264 16.2414 3.75805L20.0417 2.51003ZM4.50763 8.88989C4.55133 9.26944 4.46576 9.65263 4.26474 9.97753L0.863176 7.87292C0.590651 8.31339 0.474635 8.83289 0.533884 9.34745L4.50763 8.88989ZM4.26474 9.97753C4.06372 10.3024 3.759 10.55 3.39986 10.6803L2.03572 6.92012C1.54881 7.09676 1.1357 7.43245 0.863176 7.87292L4.26474 9.97753ZM3.4491 10.6617L16.6659 5.46937L15.2033 1.74636L1.98648 6.93872L3.4491 10.6617ZM14.7636 1.9865L5.63082 8.58238L7.97278 11.8251L17.1056 5.22923L14.7636 1.9865ZM7.19404 8.24258L3.16297 7.43637L2.3785 11.3587L6.40957 12.1649L7.19404 8.24258ZM3.11164 7.42679C3.48807 7.49191 3.83154 7.68206 4.08653 7.96652L1.10809 10.6365C1.45381 11.0222 1.91948 11.28 2.42983 11.3683L3.11164 7.42679ZM4.08653 7.96652C4.34152 8.25096 4.49315 8.6131 4.51689 8.99438L0.524622 9.24296C0.556809 9.7599 0.76238 10.2509 1.10809 10.6365L4.08653 7.96652ZM6.30596 14.4306C6.54196 14.1946 6.84264 14.0338 7.16999 13.9687L7.95047 17.8918C8.39905 17.8026 8.81109 17.5823 9.13449 17.2589L6.30596 14.4306ZM7.16999 13.9687C7.49732 13.9036 7.83663 13.937 8.14501 14.0647L6.61436 17.7603C7.03694 17.9353 7.50191 17.9811 7.95047 17.8918L7.16999 13.9687ZM8.14501 14.0647C8.45339 14.1924 8.71695 14.4087 8.90237 14.6862L5.57652 16.9086C5.83062 17.2888 6.19178 17.5852 6.61436 17.7603L8.14501 14.0647ZM8.90237 14.6862C9.08779 14.9637 9.18678 15.29 9.18678 15.6238L5.18678 15.6238C5.18678 16.0812 5.32242 16.5283 5.57652 16.9086L8.90237 14.6862ZM9.18678 15.6238V11.2282H5.18678V15.6238H9.18678ZM5.86551 12.7296L8.60489 15.1403L11.2474 12.1374L8.50804 9.72676L5.86551 12.7296ZM8.51195 12.2246L6.30603 14.4305L9.13443 17.259L11.3404 15.0531L8.51195 12.2246ZM15.6057 3.04974L12.6671 15.8726L16.566 16.7661L19.5046 3.94325L15.6057 3.04974ZM12.6671 15.8724C12.7325 15.5875 12.8707 15.3244 13.0682 15.109L16.0163 17.8125C16.287 17.5173 16.4764 17.1568 16.566 16.7663L12.6671 15.8724ZM13.0682 15.109C13.2657 14.8936 13.5158 14.7332 13.794 14.6435L15.0216 18.4505C15.4029 18.3275 15.7456 18.1077 16.0163 17.8125L13.0682 15.109ZM13.794 14.6435C14.0722 14.5538 14.369 14.5379 14.6551 14.5973L13.8416 18.5137C14.2338 18.5952 14.6404 18.5734 15.0216 18.4505L13.794 14.6435ZM14.6551 14.5973C14.9413 14.6568 15.2071 14.7895 15.4266 14.9826L12.7844 17.9857C13.0851 18.2503 13.4494 18.4323 13.8416 18.5137L14.6551 14.5973ZM15.4268 14.9827L8.69595 9.05959L6.05343 12.0624L12.7842 17.9856L15.4268 14.9827ZM8.54567 12.1824L18.6756 4.86636L16.3336 1.62363L6.20371 8.93965L8.54567 12.1824ZM15.9052 4.44581C15.7527 4.24264 15.6476 4.0079 15.5975 3.7588L19.5192 2.97124C19.4517 2.6351 19.3098 2.31834 19.104 2.04417L15.9052 4.44581ZM15.5975 3.7588C15.5475 3.50971 15.5539 3.25257 15.6161 3.00625L19.4941 3.98674C19.5781 3.65435 19.5867 3.30737 19.5192 2.97124L15.5975 3.7588Z" fill="#AAAAAA" mask="url(#path-1-inside-1_2073_29272)"/>
</svg>
